<?xml version="1.0" standalone="no"?><!DOCTYPE svg PUBLIC "-//W3C//DTD SVG 1.1//EN" "http://www.w3.org/Graphics/SVG/1.1/DTD/svg11.dtd"><svg t="1742461283869" class="icon" viewBox="0 0 1024 1024" version="1.1" xmlns="http://www.w3.org/2000/svg" p-id="5186" xmlns:xlink="http://www.w3.org/1999/xlink" width="200" height="200"><path d="M616.2 635H428c-13.3 0-24 9.9-24 22s10.8 22 24 22h188.2c13.3 0 24-9.9 24-22s-10.8-22-24-22zM616.2 501.8H510.4c-13.3 0-24 9.9-24 22s10.8 22 24 22h105.8c13.3 0 24-9.9 24-22 0-12.2-10.8-22-24-22zM407.5 545.8l28.1 22.7 7.6-35.4c0.8-4-0.2-9.1-2.7-13.2l-41-117.3c-3.3-9.3-14.5-15.7-24.1-15.1-1.9 0.1-3.8 0.5-5.6 1.1-11.5 3.9-18.5 18.4-14.3 29.7l44.8 116.6c1.4 4.5 4 8.5 7.2 10.9zM616.2 383.3H510.4c-13.3 0-24 9.9-24 22s10.8 22 24 22h105.8c13.3 0 24-9.9 24-22s-10.8-22-24-22z" fill="#af49ec" p-id="5187"></path><path d="M634.8 92H390.2c-170.5 0-310 139.5-310 310v233.8c0 170.5 139.5 310 310 310h244.6c170.5 0 310-139.5 310-310V402c0-170.5-139.5-310-310-310z m80.9 611.6c0 32-25.6 57.9-57.3 57.9H357.6c-31.6 0-57.3-25.9-57.3-57.9V356.3c0-32 25.6-57.9 57.3-57.9h300.8c31.6 0 57.3 25.9 57.3 57.9v347.3z" fill="#af49ec" p-id="5188"></path></svg>